<svg xmlns="http://www.w3.org/2000/svg" xmlns:xlink="http://www.w3.org/1999/xlink" width="59cm" height="18cm" viewBox="-186 71 1178 346"><g><rect width="208.1" height="249" x="318.9" y="129" style="fill:#fff"/><rect width="208.1" height="249" x="318.9" y="129" style="fill:none;fill-opacity:0;stroke-width:2;stroke:#ff765a"/></g><rect width="806" height="343" x="-2" y="73" style="fill:none;fill-opacity:0;stroke-width:2;stroke:#000"/><g><ellipse cx="-12.5" cy="166.712" rx="8.5" ry="8.5" style="fill:#fff"/><ellipse cx="-12.5" cy="166.712" rx="8.5" ry="8.5" style="fill:none;fill-opacity:0;stroke-width:2;stroke:#000"/><ellipse cx="-12.5" cy="166.712" rx="8.5" ry="8.5" style="fill:none;fill-opacity:0;stroke-width:2;stroke:#000"/></g><g><ellipse cx="815.232" cy="205.184" rx="8.5" ry="8.5" style="fill:#fff"/><ellipse cx="815.232" cy="205.184" rx="8.5" ry="8.5" style="fill:none;fill-opacity:0;stroke-width:2;stroke:#000"/><ellipse cx="815.232" cy="205.184" rx="8.5" ry="8.5" style="fill:none;fill-opacity:0;stroke-width:2;stroke:#000"/></g><g><line x1="-184.5" x2="-30.736" y1="167" y2="166.729" style="fill:none;fill-opacity:0;stroke-width:2;stroke:#000"/><polygon points="-23.236 166.716 -33.227 171.734 -30.736 166.729 -33.245 161.734" style="fill:#000"/><polygon points="-23.236 166.716 -33.227 171.734 -30.736 166.729 -33.245 161.734" style="fill:none;fill-opacity:0;stroke-width:2;stroke:#000"/></g><g><line x1="823.732" x2="980.066" y1="205.184" y2="205.212" style="fill:none;fill-opacity:0;stroke-width:2;stroke:#000"/><polygon points="987.566 205.214 977.565 210.212 980.066 205.212 977.567 200.212" style="fill:#000"/><polygon points="987.566 205.214 977.565 210.212 980.066 205.212 977.567 200.212" style="fill:none;fill-opacity:0;stroke-width:2;stroke:#000"/></g><text x="-139.96" y="155" style="fill:#000;text-anchor:start;font-size:12.8;font-family:sanserif;font-style:normal;font-weight:400"><tspan x="-139.96" y="155">pad 0 (sink)</tspan></text><text x="849.04" y="195" style="fill:#000;text-anchor:start;font-size:12.8;font-family:sanserif;font-style:normal;font-weight:400"><tspan x="849.04" y="195">pad 2 (source)</tspan></text><g><rect width="159" height="104" x="5.5" y="120" style="fill:#fff"/><rect width="159" height="104" x="5.5" y="120" style="fill:none;fill-opacity:0;stroke-width:2;stroke:brown"/></g><g><rect width="94" height="77" x="62.5" y="136" style="fill:#fff"/><rect width="94" height="77" x="62.5" y="136" style="fill:none;fill-opacity:0;stroke-width:2;stroke:#00f"/></g><text x="9.538" y="88.914" style="fill:brown;text-anchor:start;font-size:12.8;font-family:sanserif;font-style:normal;font-weight:400"><tspan x="9.538" y="88.914">sink media</tspan> <tspan x="9.538" y="104.914">bus format</tspan></text><g><rect width="165.2" height="172.478" x="333.644" y="185.65" style="fill:#fff"/><rect width="165.2" height="172.478" x="333.644" y="185.65" style="fill:none;fill-opacity:0;stroke-width:2;stroke:#0f0"/></g><line x1="333.644" x2="62.5" y1="358.128" y2="213" style="fill:none;fill-opacity:0;stroke-width:2;stroke-dasharray:4;stroke:#e60505"/><line x1="333.644" x2="62.5" y1="185.65" y2="136" style="fill:none;fill-opacity:0;stroke-width:2;stroke-dasharray:4;stroke:#e60505"/><line x1="498.844" x2="156.5" y1="358.128" y2="213" style="fill:none;fill-opacity:0;stroke-width:2;stroke-dasharray:4;stroke:#e60505"/><line x1="498.844" x2="156.5" y1="185.65" y2="136" style="fill:none;fill-opacity:0;stroke-width:2;stroke-dasharray:4;stroke:#e60505"/><text x="334.704" y="149.442" style="fill:#0f0;text-anchor:start;font-size:12.8;font-family:sanserif;font-style:normal;font-weight:400"><tspan x="334.704" y="149.442">sink compose</tspan> <tspan x="334.704" y="165.442">selection (scaling)</tspan></text><g><rect width="100.186" height="71.452" x="409.322" y="194.565" style="fill:#fff"/><rect width="100.186" height="71.452" x="409.322" y="194.565" style="fill:none;fill-opacity:0;stroke-width:2;stroke:#a020f0"/></g><text x="689.5" y="105.128" style="fill:#8b6914;text-anchor:start;font-size:12.8;font-family:sanserif;font-style:normal;font-weight:400"><tspan x="689.5" y="105.128">source media</tspan> <tspan x="689.5" y="121.128">bus format</tspan></text><g><rect width="100.186" height="71.452" x="688.488" y="173.834" style="fill:#fff"/><rect width="100.186" height="71.452" x="688.488" y="173.834" style="fill:none;fill-opacity:0;stroke-width:2;stroke:#8b6914"/></g><line x1="688.488" x2="409.322" y1="245.286" y2="266.018" style="fill:none;fill-opacity:0;stroke-width:2;stroke-dasharray:4;stroke:#e60505"/><line x1="688.488" x2="409.322" y1="173.834" y2="194.565" style="fill:none;fill-opacity:0;stroke-width:2;stroke-dasharray:4;stroke:#e60505"/><line x1="788.674" x2="509.508" y1="245.286" y2="266.018" style="fill:none;fill-opacity:0;stroke-width:2;stroke-dasharray:4;stroke:#e60505"/><line x1="788.674" x2="509.508" y1="173.834" y2="194.565" style="fill:none;fill-opacity:0;stroke-width:2;stroke-dasharray:4;stroke:#e60505"/><text x="325" y="103" style="fill:#ff765a;text-anchor:start;font-size:12.8;font-family:sanserif;font-style:normal;font-weight:400"><tspan x="325" y="103">sink compose</tspan> <tspan x="325" y="119">bounds selection</tspan></text><g><ellipse cx="-12.098" cy="341.512" rx="8.5" ry="8.5" style="fill:#fff"/><ellipse cx="-12.098" cy="341.512" rx="8.5" ry="8.5" style="fill:none;fill-opacity:0;stroke-width:2;stroke:#000"/><ellipse cx="-12.098" cy="341.512" rx="8.5" ry="8.5" style="fill:none;fill-opacity:0;stroke-width:2;stroke:#000"/></g><g><line x1="-184.098" x2="-30.334" y1="341.8" y2="341.529" style="fill:none;fill-opacity:0;stroke-width:2;stroke:#000"/><polygon points="-22.834 341.516 -32.825 346.534 -30.334 341.529 -32.843 336.534" style="fill:#000"/><polygon points="-22.834 341.516 -32.825 346.534 -30.334 341.529 -32.843 336.534" style="fill:none;fill-opacity:0;stroke-width:2;stroke:#000"/></g><text x="-139" y="329" style="fill:#000;text-anchor:start;font-size:12.8;font-family:sanserif;font-style:normal;font-weight:400"><tspan x="-139" y="329">pad 1 (sink)</tspan></text><g><rect width="112.092" height="82.2" x="7.808" y="292.8" style="fill:#fff"/><rect width="112.092" height="82.2" x="7.808" y="292.8" style="fill:none;fill-opacity:0;stroke-width:2;stroke:brown"/></g><g><rect width="58.1" height="50.2" x="52.9" y="314.8" style="fill:#fff"/><rect width="58.1" height="50.2" x="52.9" y="314.8" style="fill:none;fill-opacity:0;stroke-width:2;stroke:#00f"/></g><line x1="358.9" x2="52.9" y1="251.9" y2="314.8" style="fill:none;fill-opacity:0;stroke-width:2;stroke-dasharray:4;stroke:#e60505"/><line x1="358.9" x2="52.9" y1="316" y2="365" style="fill:none;fill-opacity:0;stroke-width:2;stroke-dasharray:4;stroke:#e60505"/><line x1="434" x2="111" y1="316" y2="365" style="fill:none;fill-opacity:0;stroke-width:2;stroke-dasharray:4;stroke:#e60505"/><line x1="434" x2="111" y1="251.9" y2="314.8" style="fill:none;fill-opacity:0;stroke-width:2;stroke-dasharray:4;stroke:#e60505"/><rect width="75.1" height="64.1" x="358.9" y="251.9" style="fill:none;fill-opacity:0;stroke-width:2;stroke:#0f0"/><rect width="64.738" height="48.534" x="443.262" y="284.466" style="fill:none;fill-opacity:0;stroke-width:2;stroke:#a020f0"/><g><rect width="63.572" height="49.266" x="693.428" y="324.734" style="fill:#fff"/><rect width="63.572" height="49.266" x="693.428" y="324.734" style="fill:none;fill-opacity:0;stroke-width:2;stroke:#8b6914"/></g><line x1="693.428" x2="443.262" y1="374" y2="333" style="fill:none;fill-opacity:0;stroke-width:2;stroke-dasharray:4;stroke:#e60505"/><line x1="693.428" x2="443.262" y1="324.734" y2="284.466" style="fill:none;fill-opacity:0;stroke-width:2;stroke-dasharray:4;stroke:#e60505"/><line x1="757" x2="508" y1="374" y2="333" style="fill:none;fill-opacity:0;stroke-width:2;stroke-dasharray:4;stroke:#e60505"/><line x1="757" x2="508" y1="324.734" y2="284.466" style="fill:none;fill-opacity:0;stroke-width:2;stroke-dasharray:4;stroke:#e60505"/><g><ellipse cx="815.44" cy="343.984" rx="8.5" ry="8.5" style="fill:#fff"/><ellipse cx="815.44" cy="343.984" rx="8.5" ry="8.5" style="fill:none;fill-opacity:0;stroke-width:2;stroke:#000"/><ellipse cx="815.44" cy="343.984" rx="8.5" ry="8.5" style="fill:none;fill-opacity:0;stroke-width:2;stroke:#000"/></g><g><line x1="823.94" x2="980.274" y1="343.984" y2="344.012" style="fill:none;fill-opacity:0;stroke-width:2;stroke:#000"/><polygon points="987.774 344.014 977.773 349.012 980.274 344.012 977.775 339.012" style="fill:#000"/><polygon points="987.774 344.014 977.773 349.012 980.274 344.012 977.775 339.012" style="fill:none;fill-opacity:0;stroke-width:2;stroke:#000"/></g><text x="849.248" y="333.8" style="fill:#000;text-anchor:start;font-size:12.8;font-family:sanserif;font-style:normal;font-weight:400"><tspan x="849.248" y="333.8">pad 3 (source)</tspan></text><text x="197" y="91" style="fill:#00f;text-anchor:start;font-size:12.8;font-family:sanserif;font-style:normal;font-weight:400"><tspan x="197" y="91">sink</tspan> <tspan x="197" y="107">crop</tspan> <tspan x="197" y="123">selection</tspan></text><text x="553" y="95" style="fill:#a020f0;text-anchor:start;font-size:12.8;font-family:sanserif;font-style:normal;font-weight:400"><tspan x="553" y="95">source</tspan> <tspan x="553" y="111">crop</tspan> <tspan x="553" y="127">selection</tspan></text><g><line x1="211" x2="166.21" y1="132" y2="135.287" style="fill:none;fill-opacity:0;stroke-width:2;stroke:#00f"/><polygon points="158.73 135.836 168.337 130.118 166.21 135.287 169.069 140.091" style="fill:#00f"/><polygon points="158.73 135.836 168.337 130.118 166.21 135.287 169.069 140.091" style="fill:none;fill-opacity:0;stroke-width:2;stroke:#00f"/></g><g><line x1="209" x2="115.581" y1="131" y2="306.209" style="fill:none;fill-opacity:0;stroke-width:2;stroke:#00f"/><polygon points="112.052 312.827 112.345 301.65 115.581 306.209 121.169 306.355" style="fill:#00f"/><polygon points="112.052 312.827 112.345 301.65 115.581 306.209 121.169 306.355" style="fill:none;fill-opacity:0;stroke-width:2;stroke:#00f"/></g><g><line x1="550.492" x2="514.916" y1="133.214" y2="186.469" style="fill:none;fill-opacity:0;stroke-width:2;stroke:#a020f0"/><polygon points="510.75 192.706 512.147 181.613 514.916 186.469 520.463 187.168" style="fill:#a020f0"/><polygon points="510.75 192.706 512.147 181.613 514.916 186.469 520.463 187.168" style="fill:none;fill-opacity:0;stroke-width:2;stroke:#a020f0"/></g><g><line x1="550.072" x2="510.618" y1="133.787" y2="275.089" style="fill:none;fill-opacity:0;stroke-width:2;stroke:#a020f0"/><polygon points="508.601 282.312 506.475 271.336 510.618 275.089 516.106 274.025" style="fill:#a020f0"/><polygon points="508.601 282.312 506.475 271.336 510.618 275.089 516.106 274.025" style="fill:none;fill-opacity:0;stroke-width:2;stroke:#a020f0"/></g></svg>