<svg xmlns="http://www.w3.org/2000/svg" xmlns:xlink="http://www.w3.org/1999/xlink" width="43cm" height="10cm" viewBox="-194 128 844 196"><rect width="469.774" height="193" x="-8" y="130" style="fill:none;fill-opacity:0;stroke-width:2;stroke:#000"/><g><rect width="159" height="104" x="4.5" y="189" style="fill:#fff"/><rect width="159" height="104" x="4.5" y="189" style="fill:none;fill-opacity:0;stroke-width:2;stroke:brown"/></g><g><rect width="94" height="77" x="63.5" y="211" style="fill:#fff"/><rect width="94" height="77" x="63.5" y="211" style="fill:none;fill-opacity:0;stroke-width:2;stroke:#00f"/></g><text x="74.5" y="227.75" style="fill:#00f;text-anchor:start;font-size:12.8;font-family:sanserif;font-style:normal;font-weight:400"><tspan x="74.5" y="227.75">sink</tspan> <tspan x="74.5" y="243.75">crop</tspan> <tspan x="74.5" y="259.75">selection</tspan></text><text x="8.538" y="157.914" style="fill:brown;text-anchor:start;font-size:12.8;font-family:sanserif;font-style:normal;font-weight:400"><tspan x="8.538" y="157.914">sink media</tspan> <tspan x="8.538" y="173.914">bus format</tspan></text><text x="349.774" y="155" style="fill:#8b6914;text-anchor:start;font-size:12.8;font-family:sanserif;font-style:normal;font-weight:400"><tspan x="349.774" y="155">source media</tspan> <tspan x="349.774" y="171">bus format</tspan></text><g><rect width="93.286" height="75.166" x="350.488" y="190.834" style="fill:#fff"/><rect width="93.286" height="75.166" x="350.488" y="190.834" style="fill:none;fill-opacity:0;stroke-width:2;stroke:#8b6914"/></g><line x1="350.488" x2="63.5" y1="266" y2="288" style="fill:none;fill-opacity:0;stroke-width:2;stroke-dasharray:4;stroke:#e60505"/><line x1="350.488" x2="63.5" y1="190.834" y2="211" style="fill:none;fill-opacity:0;stroke-width:2;stroke-dasharray:4;stroke:#e60505"/><line x1="443.774" x2="157.5" y1="266" y2="288" style="fill:none;fill-opacity:0;stroke-width:2;stroke-dasharray:4;stroke:#e60505"/><line x1="443.774" x2="157.5" y1="190.834" y2="211" style="fill:none;fill-opacity:0;stroke-width:2;stroke-dasharray:4;stroke:#e60505"/><g><ellipse cx="473.1" cy="219.984" rx="8.5" ry="8.5" style="fill:#fff"/><ellipse cx="473.1" cy="219.984" rx="8.5" ry="8.5" style="fill:none;fill-opacity:0;stroke-width:2;stroke:#000"/><ellipse cx="473.1" cy="219.984" rx="8.5" ry="8.5" style="fill:none;fill-opacity:0;stroke-width:2;stroke:#000"/></g><g><line x1="481.6" x2="637.934" y1="219.984" y2="220.012" style="fill:none;fill-opacity:0;stroke-width:2;stroke:#000"/><polygon points="645.434 220.014 635.433 225.012 637.934 220.012 635.435 215.012" style="fill:#000"/><polygon points="645.434 220.014 635.433 225.012 637.934 220.012 635.435 215.012" style="fill:none;fill-opacity:0;stroke-width:2;stroke:#000"/></g><text x="506.908" y="209.8" style="fill:#000;text-anchor:start;font-size:12.8;font-family:sanserif;font-style:normal;font-weight:400"><tspan x="506.908" y="209.8">pad 1 (source)</tspan></text><g><ellipse cx="-20.398" cy="241.512" rx="8.5" ry="8.5" style="fill:#fff"/><ellipse cx="-20.398" cy="241.512" rx="8.5" ry="8.5" style="fill:none;fill-opacity:0;stroke-width:2;stroke:#000"/><ellipse cx="-20.398" cy="241.512" rx="8.5" ry="8.5" style="fill:none;fill-opacity:0;stroke-width:2;stroke:#000"/></g><g><line x1="-192.398" x2="-38.634" y1="241.8" y2="241.529" style="fill:none;fill-opacity:0;stroke-width:2;stroke:#000"/><polygon points="-31.134 241.516 -41.125 246.534 -38.634 241.529 -41.143 236.534" style="fill:#000"/><polygon points="-31.134 241.516 -41.125 246.534 -38.634 241.529 -41.143 236.534" style="fill:none;fill-opacity:0;stroke-width:2;stroke:#000"/></g><text x="-147.858" y="229.8" style="fill:#000;text-anchor:start;font-size:12.8;font-family:sanserif;font-style:normal;font-weight:400"><tspan x="-147.858" y="229.8">pad 0 (sink)</tspan></text></svg>